<svg enable-background="new 0 0 800 600" viewBox="0 0 800 600" xmlns="http://www.w3.org/2000/svg"><path d="m52.79 365.34c-.476 1.601-.822 3.168-1.038 4.702-.217 1.536-.324 3.038-.324 4.508 0 2.983.659 5.902 1.978 8.756 1.318 2.854 3.264 5.384 5.837 7.589 2.572 2.205 5.74 3.978 9.502 5.318s8.085 2.011 12.972 2.011c3.415 0 6.853-.324 10.312-.973s6.788-1.622 9.988-2.919c3.199-1.297 6.172-2.897 8.918-4.8s5.134-4.129 7.167-6.681c2.032-2.551 3.632-5.404 4.8-8.561s1.751-6.616 1.751-10.378c0-3.588-.486-6.852-1.459-9.793-.973-2.94-2.325-5.61-4.054-8.01s-3.773-4.605-6.129-6.616c-2.357-2.01-4.908-3.869-7.653-5.578-2.747-1.708-5.643-3.34-8.691-4.897-3.049-1.557-6.108-3.091-9.178-4.605-3.243-1.599-6.454-3.243-9.631-4.929-3.178-1.687-6.227-3.502-9.146-5.448-2.918-1.946-5.621-4.075-8.107-6.389-2.487-2.312-4.637-4.896-6.453-7.75s-3.243-6.021-4.281-9.502c-1.038-3.48-1.557-7.383-1.557-11.707 0-4.497.637-8.701 1.914-12.615 1.274-3.913 3.048-7.513 5.318-10.799 2.27-3.285 4.972-6.215 8.107-8.788 3.134-2.572 6.561-4.756 10.28-6.551 3.718-1.794 7.653-3.156 11.804-4.086 4.151-.929 8.41-1.394 12.777-1.394 3.978 0 7.956.421 11.934 1.265 3.978.843 7.556 2.151 10.734 3.924s5.761 4.032 7.75 6.778c1.988 2.746 2.983 6 2.983 9.761 0 1.946-.368 3.751-1.103 5.416-.736 1.665-1.741 3.113-3.016 4.346-1.276 1.232-2.756 2.195-4.443 2.886-1.686.692-3.459 1.038-5.318 1.038-.606 0-1.232-.032-1.881-.097-.648-.065-1.276-.205-1.881-.421l-.583-.584c.778-2.724 1.167-5.145 1.167-7.264 0-3.632-.627-6.626-1.881-8.983-1.255-2.356-2.886-4.226-4.897-5.61-2.011-1.383-4.281-2.356-6.81-2.918-2.53-.562-5.07-.843-7.621-.843-4.411 0-8.508.681-12.291 2.043-3.784 1.362-7.059 3.275-9.826 5.74-2.768 2.464-4.94 5.405-6.519 8.821s-2.367 7.178-2.367 11.285c0 3.502.475 6.681 1.427 9.534.951 2.854 2.28 5.459 3.989 7.815 1.708 2.357 3.729 4.519 6.064 6.486 2.335 1.968 4.875 3.805 7.621 5.513s5.643 3.34 8.691 4.897 6.129 3.092 9.242 4.605c3.07 1.514 6.183 3.081 9.34 4.702 3.156 1.622 6.227 3.395 9.21 5.318 2.983 1.925 5.783 4.033 8.399 6.324 2.616 2.292 4.907 4.843 6.875 7.653 1.967 2.812 3.512 5.946 4.637 9.405 1.124 3.46 1.687 7.308 1.687 11.545 0 5.794-.854 11.102-2.562 15.922-1.709 4.821-4.033 9.156-6.973 13.004-2.941 3.849-6.378 7.221-10.312 10.118-3.935 2.896-8.151 5.308-12.647 7.231-4.498 1.924-9.145 3.362-13.944 4.313-4.8.95-9.535 1.427-14.204 1.427-2.941 0-6.087-.238-9.437-.713-3.352-.477-6.692-1.2-10.021-2.173-3.33-.974-6.529-2.217-9.599-3.729-3.07-1.515-5.772-3.319-8.107-5.416-2.335-2.098-4.205-4.508-5.61-7.231-1.405-2.725-2.108-5.772-2.108-9.146 0-2.161.389-4.129 1.167-5.902.778-1.772 1.816-3.296 3.113-4.572 1.297-1.274 2.778-2.259 4.443-2.951 1.664-.69 3.383-1.037 5.156-1.037.649 0 1.308.055 1.979.162.67.108 1.351.292 2.043.551z" fill="#fff"/><path d="m184.132 246.778c-1.816 8.216-3.34 16.701-4.573 25.458-1.232 8.756-2.281 17.393-3.146 25.911 2.032.087 4.01.152 5.935.194 1.923.043 3.718.087 5.383.13 1.664.043 3.178.065 4.54.065s2.497 0 3.405 0c3.934 0 7.156-.237 9.664-.714.216.736.389 1.406.519 2.011.13.606.195 1.167.195 1.687 0 1.903-.79 3.135-2.367 3.697-1.579.562-3.859.843-6.843.843-2.854 0-6.043-.172-9.567-.519-3.524-.345-7.384-.67-11.577-.973-.476 4.627-.875 9.135-1.2 13.523-.325 4.389-.584 8.529-.778 12.42-.195 3.892-.335 7.502-.422 10.832s-.129 6.227-.129 8.691c0 4.627.237 8.756.713 12.388.475 3.632 1.318 6.713 2.529 9.242 1.21 2.529 2.875 4.465 4.994 5.805 2.118 1.341 4.8 2.011 8.042 2.011 2.335 0 4.939-.41 7.815-1.232 2.875-.821 6.15-2.141 9.826-3.956 1.167 1.167 1.837 2.594 2.011 4.28-2.682 1.773-5.383 3.384-8.107 4.832-2.724 1.449-5.406 2.691-8.042 3.729-2.638 1.037-5.188 1.837-7.653 2.399s-4.8.844-7.005.844c-2.897 0-5.545-.53-7.945-1.59-2.399-1.06-4.475-2.939-6.226-5.643-1.751-2.701-3.113-6.345-4.086-10.929-.973-4.582-1.459-10.376-1.459-17.381 0-3.934.064-7.988.194-12.161.13-4.172.302-8.399.519-12.68.216-4.281.497-8.562.843-12.842.345-4.281.734-8.497 1.167-12.647-3.416.043-6.583.185-9.501.421-2.919.238-5.416.616-7.491 1.135-.13-.259-.195-.562-.195-.908 0-.908.443-1.761 1.33-2.562.886-.799 2.118-1.524 3.697-2.172 1.578-.649 3.47-1.189 5.675-1.622 2.206-.432 4.626-.735 7.264-.908.995-9.037 2.053-17.577 3.178-25.619 1.124-8.042 2.248-15.22 3.373-21.533.216-1.124.616-2.053 1.2-2.789.583-.734 1.265-1.318 2.043-1.751.778-.432 1.622-.735 2.529-.908.908-.172 1.794-.259 2.659-.259 1.427 0 2.713.152 3.859.454 1.145.302 2.216.735 3.211 1.296z" fill="#fff"/><path d="m266.635 320.328c0-3.416-.562-6.377-1.687-8.886-1.125-2.507-2.594-4.562-4.41-6.162-1.816-1.599-3.87-2.789-6.162-3.567s-4.584-1.167-6.875-1.167c-3.071 0-5.665.324-7.783.973-2.119.648-3.838 1.535-5.156 2.659-1.319 1.125-2.27 2.455-2.854 3.989-.583 1.535-.875 3.189-.875 4.962 0 2.075.378 4.162 1.135 6.259.756 2.098 1.87 4.141 3.34 6.129l-.26.713c-2.464 1.211-4.952 1.816-7.458 1.816-1.471 0-2.844-.227-4.119-.681-1.276-.454-2.378-1.113-3.308-1.978-.931-.865-1.666-1.924-2.206-3.178-.541-1.254-.811-2.659-.811-4.216 0-2.551.616-4.951 1.849-7.199 1.232-2.248 2.864-4.302 4.896-6.162 2.032-1.859 4.388-3.524 7.07-4.994 2.681-1.47 5.448-2.713 8.302-3.729s5.718-1.794 8.594-2.335c2.875-.54 5.545-.811 8.01-.811 4.54 0 8.42.606 11.642 1.816 3.221 1.211 5.837 2.973 7.848 5.286 2.01 2.313 3.48 5.113 4.41 8.399.929 3.287 1.395 7.005 1.395 11.156 0 2.854-.12 5.989-.357 9.405-.238 3.416-.508 6.995-.811 10.734-.303 3.741-.574 7.6-.811 11.577-.238 3.979-.357 7.936-.357 11.87 0 6.226 1.156 10.906 3.47 14.041 2.312 3.136 5.351 4.702 9.112 4.702 3.329 0 7.047-1.232 11.156-3.696l1.881 2.789c-2.897 2.896-6.054 5.103-9.469 6.615-3.416 1.513-7.005 2.27-10.767 2.27-2.811 0-5.406-.476-7.783-1.427-2.378-.951-4.433-2.367-6.162-4.248s-3.07-4.248-4.021-7.102c-.952-2.854-1.427-6.162-1.427-9.924 0-1.124.032-2.247.097-3.372.065-1.124.205-2.312.421-3.567h-.389c-1.859 3.719-4.011 7.384-6.453 10.993-2.443 3.61-5.124 6.832-8.042 9.664-2.919 2.832-6.032 5.124-9.34 6.875s-6.778 2.627-10.41 2.627c-2.984 0-5.708-.52-8.172-1.557-2.465-1.038-4.573-2.465-6.324-4.281-1.751-1.815-3.113-3.966-4.086-6.453-.973-2.486-1.459-5.199-1.459-8.14 0-3.805.702-7.264 2.108-10.377 1.404-3.113 3.35-5.902 5.837-8.367 2.486-2.465 5.458-4.594 8.918-6.389 3.458-1.794 7.221-3.286 11.285-4.476 4.064-1.188 8.367-2.075 12.907-2.659 4.54-.583 9.167-.875 13.88-.875.302-2.724.551-5.361.746-7.913.198-2.55.295-5.36.295-8.431zm-39.823 44.558c0 1.686.183 3.297.551 4.832.367 1.534.951 2.886 1.751 4.053.8 1.168 1.816 2.087 3.048 2.757 1.232.671 2.713 1.005 4.443 1.005 1.946 0 3.957-.454 6.032-1.361 2.076-.908 4.119-2.162 6.129-3.762s3.934-3.513 5.772-5.74c1.837-2.227 3.491-4.659 4.962-7.296 1.469-2.637 2.691-5.416 3.664-8.334s1.61-5.912 1.914-8.983c-3.2.087-6.378.292-9.534.616-3.157.324-6.151.833-8.983 1.524-2.833.692-5.459 1.6-7.88 2.724-2.422 1.125-4.508 2.52-6.259 4.184-1.751 1.665-3.125 3.632-4.119 5.902-.994 2.269-1.491 4.896-1.491 7.879z" fill="#fff"/><path d="m314.569 388.689-1.038-.065c.346-4.107.67-8.582.973-13.426.302-4.842.583-9.761.843-14.754.259-4.994.486-9.945.681-14.853.195-4.907.367-9.491.519-13.75.151-4.258.259-8.075.324-11.447.065-3.373.097-6.032.097-7.978 0-1.599-.064-2.983-.194-4.151s-.421-2.14-.875-2.918-1.114-1.351-1.979-1.719c-.865-.367-2.033-.551-3.502-.551-.736 0-1.492.043-2.271.129-.778.087-1.644.217-2.594.389-.952.173-2.021.4-3.21.681-1.19.282-2.562.616-4.119 1.005l-.973-4.67c7.177-2.594 12.993-4.42 17.447-5.48 4.453-1.059 7.459-1.589 9.016-1.589 2.854 0 4.897.833 6.129 2.497 1.232 1.665 1.849 4.141 1.849 7.426 0 .303-.043 1.189-.13 2.659s-.206 3.384-.356 5.74c-.152 2.357-.335 5.092-.551 8.205-.217 3.113-.465 6.454-.746 10.021-.282 3.567-.595 7.287-.94 11.156-.347 3.87-.713 7.729-1.103 11.577l.648.065c2.076-8.474 4.421-16.377 7.038-23.706 2.615-7.329 5.555-13.695 8.821-19.101 3.264-5.404 6.853-9.653 10.766-12.745 3.913-3.091 8.205-4.637 12.875-4.637 1.643 0 3.178.259 4.605.778s2.66 1.243 3.697 2.173c1.038.93 1.858 2.033 2.464 3.308.605 1.276.908 2.67.908 4.184 0 1.945-.421 3.816-1.265 5.61-.843 1.795-2.173 3.384-3.989 4.767h-.519c-1.816-1.513-3.535-2.604-5.156-3.275-1.622-.67-3.34-1.005-5.156-1.005-1.946 0-3.827.368-5.643 1.103-1.816.736-3.481 1.794-4.994 3.178-2.465 2.249-4.757 5.221-6.875 8.918-2.119 3.697-4.054 7.794-5.805 12.291-1.751 4.498-3.33 9.221-4.734 14.172-1.406 4.952-2.617 9.772-3.632 14.463-1.017 4.692-1.838 9.103-2.465 13.23-.627 4.13-1.07 7.6-1.33 10.41z" fill="#fff"/><path d="m412.184 212.922c-.865 7.351-1.718 14.885-2.562 22.603-.843 7.718-1.644 15.523-2.399 23.414-.757 7.892-1.46 15.815-2.108 23.771s-1.211 15.793-1.687 23.511-.843 15.296-1.103 22.733c-.259 7.438-.389 14.572-.389 21.403 0 4.281.054 7.957.162 11.026.107 3.07.28 5.665.519 7.783.237 2.119.562 3.826.973 5.124.411 1.297.919 2.292 1.524 2.983s1.318 1.157 2.141 1.395c.821.237 1.794.356 2.919.356 2.076 0 4.312-.313 6.713-.94 2.4-.626 4.832-1.502 7.297-2.627l1.232 3.373c-1.557 1.254-3.514 2.529-5.871 3.826-2.355 1.297-4.832 2.487-7.426 3.567-2.595 1.08-5.135 1.956-7.621 2.627-2.486.67-4.637 1.005-6.454 1.005-2.335 0-4.183-.595-5.545-1.783s-2.399-3.123-3.113-5.805c-.713-2.681-1.167-6.172-1.362-10.475-.194-4.302-.292-9.544-.292-15.728 0-2.248.065-5.458.195-9.632.129-4.172.313-9.025.551-14.561.237-5.535.508-11.587.811-18.161.302-6.572.626-13.371.973-20.398.345-7.026.713-14.117 1.103-21.274.389-7.156.778-14.074 1.167-20.755.389-6.68.756-12.982 1.103-18.906.346-5.923.67-11.156.973-15.696.043-1.038.346-1.935.908-2.692.562-.756 1.286-1.362 2.173-1.816.886-.454 1.881-.789 2.983-1.005 1.103-.216 2.215-.324 3.34-.324 2.594.002 5.318.695 8.172 2.078z" fill="#fff"/><path d="m495.011 366.896c.26.13.595.314 1.006.552.41.238.788.498 1.135.778.346.281.648.584.908.908s.389.639.389.94c0 .173-.064.346-.194.519-2.422 3.372-5.026 6.303-7.815 8.788-2.789 2.487-5.687 4.562-8.691 6.227s-6.063 2.896-9.177 3.697c-3.113.8-6.185 1.199-9.21 1.199-5.189 0-9.946-1.06-14.27-3.178s-8.042-5.016-11.155-8.691c-3.113-3.674-5.546-7.987-7.297-12.938s-2.627-10.258-2.627-15.923c0-4.626.508-9.252 1.524-13.88 1.016-4.626 2.486-9.037 4.41-13.231s4.27-8.096 7.037-11.707c2.767-3.61 5.912-6.746 9.438-9.405 3.523-2.659 7.394-4.745 11.609-6.259 4.216-1.513 8.745-2.27 13.588-2.27 3.199 0 6.248.433 9.146 1.297 2.896.865 5.437 2.108 7.621 3.729 2.183 1.622 3.924 3.622 5.221 6s1.946 5.082 1.946 8.107c0 4.411-1.438 8.259-4.313 11.545-2.876 3.287-6.843 6.075-11.901 8.367-5.06 2.292-11.017 4.141-17.869 5.545-6.854 1.406-14.259 2.455-22.214 3.146v1.103c0 5.535.702 10.594 2.107 15.177s3.341 8.507 5.806 11.772c2.464 3.265 5.36 5.805 8.69 7.62 3.329 1.816 6.918 2.725 10.767 2.725 3.892 0 7.881-.962 11.967-2.887 4.084-1.923 8.223-5.048 12.418-9.372zm-12.194-52.081c0-1.988-.335-3.848-1.005-5.578-.671-1.729-1.601-3.232-2.789-4.508-1.189-1.275-2.605-2.28-4.248-3.016-1.644-.734-3.416-1.103-5.318-1.103-2.812 0-5.362.498-7.653 1.492-2.293.995-4.346 2.346-6.162 4.054-1.815 1.708-3.416 3.697-4.8 5.967s-2.562 4.681-3.534 7.231c-.973 2.552-1.763 5.167-2.367 7.848-.606 2.682-1.038 5.297-1.298 7.848 6.14-.432 11.643-1.177 16.507-2.237 4.864-1.059 8.972-2.421 12.323-4.086 3.351-1.664 5.912-3.653 7.686-5.967 1.772-2.312 2.658-4.961 2.658-7.945z" fill="#fff"/><path d="m591.978 299.054c3.373 0 6.421-.042 9.146-.129 2.724-.086 4.842-.172 6.356-.26 1.945-.086 3.739-.194 5.383-.324 1.643-.13 3.069-.302 4.28-.519.476 1.644.714 2.941.714 3.892 0 1.903-.789 3.189-2.367 3.859-1.579.671-3.859 1.005-6.843 1.005-2.854 0-6.054-.043-9.599-.13-3.547-.086-7.417-.216-11.61-.389-.477 4.973-.865 9.708-1.167 14.204-.304 4.498-.552 8.648-.746 12.453-.194 3.806-.336 7.178-.422 10.118-.087 2.941-.13 5.341-.13 7.199 0 4.627.237 8.756.714 12.388.476 3.632 1.318 6.713 2.529 9.242 1.21 2.529 2.875 4.465 4.994 5.805 2.118 1.341 4.8 2.011 8.043 2.011 2.335 0 4.939-.41 7.815-1.232 2.875-.821 6.15-2.141 9.826-3.956 1.167 1.167 1.837 2.594 2.011 4.28-2.682 1.773-5.384 3.384-8.107 4.832-2.725 1.449-5.406 2.691-8.043 3.729-2.638 1.037-5.188 1.837-7.653 2.399s-4.8.844-7.005.844c-2.897 0-5.545-.53-7.945-1.59-2.399-1.06-4.475-2.939-6.227-5.643-1.751-2.701-3.113-6.345-4.086-10.929-.973-4.582-1.459-10.376-1.459-17.381 0-7.653.227-15.576.681-23.771.454-8.193 1.113-16.657 1.979-25.392-5.362-.216-10.929-.389-16.701-.519-5.772-.129-11.771-.194-17.998-.194h-4.865c-.476 4.627-.875 9.113-1.199 13.458-.324 4.346-.584 8.443-.778 12.291-.194 3.849-.336 7.416-.422 10.702-.087 3.287-.13 6.162-.13 8.626 0 4.627.237 8.756.714 12.388.476 3.632 1.318 6.713 2.529 9.242 1.21 2.529 2.875 4.465 4.994 5.805 2.118 1.341 4.8 2.011 8.043 2.011 2.335 0 4.842-.378 7.523-1.135s5.837-1.979 9.469-3.665c1.168 1.168 1.838 2.595 2.011 4.28-2.464 1.645-5.005 3.157-7.621 4.541s-5.231 2.584-7.848 3.6c-2.616 1.015-5.167 1.815-7.653 2.399s-4.832.876-7.037.876c-2.897 0-5.545-.53-7.945-1.59-2.399-1.06-4.475-2.939-6.227-5.643-1.751-2.701-3.113-6.345-4.086-10.929-.973-4.582-1.459-10.376-1.459-17.381 0-7.956.237-16.183.713-24.679.476-8.497 1.146-16.938 2.011-25.328-3.416.043-6.583.185-9.502.422-2.918.238-5.415.616-7.491 1.135-.087-.13-.141-.302-.162-.519-.021-.216-.032-.389-.032-.519 0-.908.443-1.772 1.33-2.594.886-.821 2.118-1.567 3.696-2.238 1.578-.67 3.471-1.232 5.676-1.687s4.626-.767 7.264-.94c.432-3.934.886-7.826 1.362-11.674s.962-7.578 1.459-11.188.994-7.047 1.492-10.312c.496-3.264.982-6.259 1.459-8.983.216-1.167.616-2.14 1.2-2.918s1.254-1.395 2.011-1.849c.756-.454 1.578-.767 2.465-.94.886-.172 1.761-.259 2.626-.259 1.428 0 2.702.152 3.827.454 1.124.303 2.183.736 3.178 1.297-.735 3.632-1.427 7.405-2.075 11.318-.648 3.914-1.255 7.859-1.816 11.837-.562 3.979-1.081 7.945-1.557 11.901-.476 3.957-.907 7.815-1.297 11.578 6.615 0 13.199.076 19.75.227 6.551.152 13.155.314 19.814.487.864-8.475 1.848-16.755 2.95-24.841 1.103-8.085 2.346-15.847 3.729-23.284.216-1.124.616-2.053 1.2-2.789.584-.734 1.265-1.318 2.043-1.751.778-.432 1.621-.735 2.529-.908.908-.172 1.794-.259 2.659-.259 1.427 0 2.713.152 3.859.454 1.146.303 2.216.736 3.211 1.297-.908 4.108-1.752 8.346-2.53 12.712-.778 4.368-1.491 8.767-2.14 13.199-.648 4.433-1.232 8.865-1.752 13.296-.519 4.433-.973 8.788-1.361 13.069h3.826z" fill="#fff"/><path d="m688.685 366.896c.26.13.595.314 1.006.552.41.238.788.498 1.135.778.346.281.648.584.908.908s.389.639.389.94c0 .173-.064.346-.194.519-2.422 3.372-5.026 6.303-7.815 8.788-2.789 2.487-5.687 4.562-8.691 6.227s-6.063 2.896-9.177 3.697c-3.113.8-6.185 1.199-9.21 1.199-5.189 0-9.946-1.06-14.27-3.178s-8.042-5.016-11.155-8.691c-3.113-3.674-5.546-7.987-7.297-12.938s-2.627-10.258-2.627-15.923c0-4.626.508-9.252 1.524-13.88 1.016-4.626 2.486-9.037 4.41-13.231s4.27-8.096 7.037-11.707c2.767-3.61 5.912-6.746 9.438-9.405 3.523-2.659 7.394-4.745 11.609-6.259 4.216-1.513 8.745-2.27 13.588-2.27 3.199 0 6.248.433 9.146 1.297 2.896.865 5.437 2.108 7.621 3.729 2.183 1.622 3.924 3.622 5.221 6s1.946 5.082 1.946 8.107c0 4.411-1.438 8.259-4.313 11.545-2.876 3.287-6.843 6.075-11.901 8.367-5.06 2.292-11.017 4.141-17.869 5.545-6.854 1.406-14.259 2.455-22.214 3.146v1.103c0 5.535.702 10.594 2.107 15.177s3.341 8.507 5.806 11.772c2.464 3.265 5.36 5.805 8.69 7.62 3.329 1.816 6.918 2.725 10.767 2.725 3.892 0 7.881-.962 11.967-2.887 4.084-1.923 8.223-5.048 12.418-9.372zm-12.194-52.081c0-1.988-.335-3.848-1.005-5.578-.671-1.729-1.601-3.232-2.789-4.508-1.189-1.275-2.605-2.28-4.248-3.016-1.644-.734-3.416-1.103-5.318-1.103-2.812 0-5.362.498-7.653 1.492-2.293.995-4.346 2.346-6.162 4.054-1.815 1.708-3.416 3.697-4.8 5.967s-2.562 4.681-3.534 7.231c-.973 2.552-1.763 5.167-2.367 7.848-.606 2.682-1.038 5.297-1.298 7.848 6.14-.432 11.643-1.177 16.507-2.237 4.864-1.059 8.972-2.421 12.323-4.086 3.351-1.664 5.912-3.653 7.686-5.967 1.772-2.312 2.658-4.961 2.658-7.945z" fill="#fff"/><path d="m760.74 235.338-36.46-16.889-2.623-40.096c-.184-2.808-3.636-4.034-5.549-1.971l-27.329 29.456-38.944-9.895c-2.727-.693-4.96 2.212-3.59 4.669l19.57 35.094-21.446 33.98c-1.502 2.379.571 5.401 3.331 4.857l39.424-7.767 25.69 30.896c1.799 2.163 5.313 1.126 5.649-1.667l4.796-39.895 37.323-14.885c2.611-1.042 2.711-4.704.158-5.887z" fill="#ffdc65"/><path d="m680.765 162.479c.974 3.352 2.326 16.744 3.054 24.528.115 1.224-1.54 1.704-2.099.61-3.555-6.962-9.587-18.995-10.561-22.347-.771-2.653.755-5.428 3.408-6.198 2.652-.771 5.427.755 6.198 3.407z" fill="#fff182"/><path d="m757.849 189.861c-2.87 1.987-12.368 11.525-17.843 17.105-.861.877.12 2.294 1.244 1.797 7.15-3.159 19.421-8.691 22.292-10.678 2.271-1.572 2.838-4.688 1.266-6.959s-4.687-2.837-6.959-1.265z" fill="#fff182"/><path d="m760.413 278.936c-2.765-2.131-14.738-8.281-21.717-11.802-1.097-.554-2.149.812-1.334 1.731 5.183 5.852 14.181 15.863 16.946 17.994 2.188 1.686 5.328 1.279 7.015-.909 1.685-2.188 1.278-5.328-.91-7.014z" fill="#fff182"/><path d="m622.585 229.977c3.49.091 16.66 2.872 24.296 4.543 1.2.263 1.155 1.985-.057 2.185-7.713 1.271-21.01 3.363-24.5 3.272-2.761-.072-4.941-2.369-4.869-5.13.072-2.762 2.368-4.942 5.13-4.87z" fill="#fff182"/><path d="m722.61 192.934-.954-14.581c-.184-2.808-3.636-4.034-5.55-1.971l-27.329 29.456-38.944-9.895c-2.727-.693-4.96 2.212-3.59 4.669l19.57 35.094-21.446 33.98c-1.502 2.379.571 5.401 3.331 4.857l5.247-1.034c23.439-43.46 55.4-70.122 69.665-80.575z" fill="#fdc850"/><g fill="#fff"><path d="m149.275 440.799h-1.695v-22.476h-7.815v-1.579h17.326v1.579h-7.815z"/><path d="m172.721 440.799v-11.6c0-1.799-.378-3.107-1.135-3.924s-1.931-1.227-3.521-1.227c-2.139 0-3.705.541-4.698 1.621s-1.489 2.833-1.489 5.257v9.872h-1.629v-25.602h1.629v8.145l-.083 2.287h.115c.669-1.075 1.514-1.854 2.534-2.337 1.021-.482 2.287-.724 3.801-.724 4.059 0 6.088 2.178 6.088 6.532v11.698h-1.612z"/><path d="m187.348 441.128c-2.6 0-4.626-.801-6.08-2.402-1.454-1.602-2.18-3.845-2.18-6.729 0-2.852.702-5.136 2.106-6.853s3.296-2.575 5.676-2.575c2.106 0 3.768.735 4.986 2.205 1.217 1.47 1.826 3.466 1.826 5.989v1.315h-12.883c.022 2.458.595 4.333 1.72 5.628 1.124 1.294 2.734 1.941 4.829 1.941 1.02 0 1.917-.071 2.69-.214s1.752-.45 2.937-.922v1.48c-1.009.439-1.941.738-2.797.897-.856.16-1.799.24-2.83.24zm-.477-17.112c-1.722 0-3.104.567-4.146 1.702-1.042 1.136-1.651 2.772-1.826 4.912h11.057c0-2.073-.45-3.694-1.349-4.862-.901-1.168-2.146-1.752-3.736-1.752z"/><path d="m209.001 440.799h-1.629v-25.602h1.629z"/><path d="m214.759 417.945c0-1.054.346-1.58 1.037-1.58.34 0 .606.138.798.411.192.274.288.664.288 1.169 0 .493-.096.883-.288 1.168s-.458.428-.798.428c-.691 0-1.037-.532-1.037-1.596zm1.86 22.854h-1.629v-17.885h1.629z"/><path d="m227.33 439.679c1.031 0 1.93-.087 2.698-.263v1.316c-.79.263-1.7.395-2.731.395-1.58 0-2.745-.422-3.496-1.267s-1.127-2.172-1.127-3.982v-11.55h-2.649v-.954l2.649-.741.822-4.047h.839v4.327h5.249v1.415h-5.249v11.319c0 1.372.241 2.386.724 3.044.483.659 1.24.988 2.271.988z"/><path d="m238.617 439.679c1.031 0 1.93-.087 2.698-.263v1.316c-.79.263-1.7.395-2.731.395-1.58 0-2.745-.422-3.496-1.267s-1.127-2.172-1.127-3.982v-11.55h-2.649v-.954l2.649-.741.822-4.047h.839v4.327h5.249v1.415h-5.249v11.319c0 1.372.241 2.386.724 3.044.483.659 1.24.988 2.271.988z"/><path d="m246.811 440.799h-1.629v-25.602h1.629z"/><path d="m260.023 441.128c-2.6 0-4.626-.801-6.08-2.402-1.454-1.602-2.18-3.845-2.18-6.729 0-2.852.702-5.136 2.106-6.853s3.296-2.575 5.676-2.575c2.106 0 3.768.735 4.986 2.205 1.217 1.47 1.826 3.466 1.826 5.989v1.315h-12.883c.022 2.458.595 4.333 1.72 5.628 1.124 1.294 2.734 1.941 4.829 1.941 1.02 0 1.917-.071 2.69-.214s1.752-.45 2.937-.922v1.48c-1.009.439-1.941.738-2.797.897-.856.16-1.799.24-2.83.24zm-.478-17.112c-1.722 0-3.104.567-4.146 1.702-1.042 1.136-1.651 2.772-1.826 4.912h11.057c0-2.073-.45-3.694-1.349-4.862-.9-1.168-2.145-1.752-3.736-1.752z"/><path d="m292.042 432.308h-9.773l-3.356 8.49h-1.859l9.675-24.153h1.069l9.477 24.153h-1.892zm-9.165-1.513h8.605l-3.274-8.671c-.274-.68-.603-1.623-.987-2.83-.296 1.053-.62 2.008-.971 2.863z"/><path d="m313.957 434.595c0 2.008-.738 3.598-2.213 4.771s-3.436 1.761-5.882 1.761c-2.94 0-5.194-.323-6.763-.971v-1.679c1.733.735 3.943 1.103 6.631 1.103 1.975 0 3.54-.452 4.698-1.357 1.157-.904 1.736-2.092 1.736-3.562 0-.911-.192-1.665-.576-2.263s-1.009-1.144-1.875-1.637c-.867-.494-2.139-1.026-3.817-1.597-2.457-.845-4.154-1.758-5.092-2.739s-1.407-2.29-1.407-3.924c0-1.799.705-3.267 2.114-4.401 1.409-1.136 3.222-1.703 5.438-1.703 2.259 0 4.382.428 6.367 1.283l-.608 1.448c-1.997-.834-3.905-1.251-5.726-1.251-1.777 0-3.192.411-4.245 1.234-1.053.822-1.58 1.941-1.58 3.356 0 .889.162 1.618.485 2.188.324.57.853 1.083 1.588 1.538s1.997 1.001 3.784 1.637c1.876.647 3.285 1.275 4.229 1.885.943.608 1.631 1.3 2.064 2.073.434.775.65 1.711.65 2.807z"/><path d="m328.502 428.673h8.868v10.975c-2.325.987-4.941 1.48-7.848 1.48-3.795 0-6.705-1.072-8.729-3.217s-3.036-5.18-3.036-9.106c0-2.446.502-4.615 1.505-6.508 1.004-1.893 2.44-3.354 4.311-4.385 1.87-1.031 4.017-1.547 6.441-1.547 2.622 0 4.974.483 7.059 1.448l-.675 1.514c-2.084-.965-4.245-1.448-6.482-1.448-3.17 0-5.685.979-7.544 2.938s-2.789 4.599-2.789 7.922c0 3.62.883 6.343 2.649 8.169 1.766 1.827 4.36 2.74 7.783 2.74 2.215 0 4.097-.313 5.644-.938v-8.457h-7.157z"/><path d="m343.409 440.799v-24.055h1.678v24.055z"/><path d="m366.888 424.329h-4.212v16.47h-1.629v-16.47h-3.324v-.954l3.324-.609v-1.382c0-2.193.403-3.804 1.209-4.829s2.125-1.538 3.957-1.538c.987 0 1.974.147 2.961.444l-.378 1.414c-.877-.273-1.75-.411-2.616-.411-1.272 0-2.174.376-2.707 1.127-.532.752-.798 1.973-.798 3.661v1.662h4.212z"/><path d="m377.386 422.568c.757 0 1.568.077 2.435.23l-.312 1.562c-.746-.186-1.52-.279-2.32-.279-1.525 0-2.775.647-3.751 1.941-.977 1.295-1.464 2.929-1.464 4.903v9.872h-1.629v-17.885h1.382l.165 3.225h.115c.735-1.316 1.519-2.24 2.353-2.772.832-.531 1.841-.797 3.026-.797z"/><path d="m394.316 440.799-.412-2.83h-.131c-.9 1.151-1.824 1.966-2.772 2.443-.949.478-2.071.716-3.365.716-1.755 0-3.121-.449-4.097-1.35-.976-.898-1.464-2.144-1.464-3.734 0-1.744.727-3.099 2.18-4.064s3.557-1.475 6.31-1.53l3.406-.099v-1.185c0-1.7-.346-2.983-1.037-3.85s-1.804-1.3-3.34-1.3c-1.657 0-3.373.46-5.15 1.382l-.609-1.415c1.963-.922 3.905-1.382 5.824-1.382 1.963 0 3.431.51 4.401 1.53.971 1.02 1.456 2.61 1.456 4.771v11.896h-1.2zm-6.581-1.152c1.909 0 3.414-.546 4.517-1.638 1.102-1.091 1.653-2.607 1.653-4.549v-1.761l-3.126.132c-2.512.12-4.303.513-5.372 1.176-1.069.664-1.604 1.698-1.604 3.102 0 1.119.343 1.988 1.028 2.608s1.653.93 2.904.93z"/><path d="m423.652 440.799v-11.731c0-1.744-.34-3.017-1.02-3.817s-1.723-1.201-3.125-1.201c-1.832 0-3.188.505-4.064 1.514-.879 1.01-1.316 2.595-1.316 4.756v10.48h-1.662v-12.225c0-3.017-1.382-4.525-4.146-4.525-1.876 0-3.241.546-4.097 1.638s-1.283 2.838-1.283 5.24v9.872h-1.629v-17.885h1.349l.346 2.451h.099c.494-.889 1.195-1.576 2.106-2.064.91-.488 1.914-.732 3.011-.732 2.819 0 4.63 1.059 5.431 3.176h.064c.582-1.021 1.363-1.805 2.346-2.354.98-.548 2.098-.822 3.348-.822 1.953 0 3.416.521 4.393 1.563s1.465 2.698 1.465 4.969v11.698h-1.616z"/><path d="m438.28 441.128c-2.6 0-4.626-.801-6.08-2.402-1.453-1.602-2.18-3.845-2.18-6.729 0-2.852.702-5.136 2.106-6.853 1.403-1.717 3.296-2.575 5.676-2.575 2.106 0 3.768.735 4.985 2.205s1.826 3.466 1.826 5.989v1.315h-12.883c.022 2.458.595 4.333 1.72 5.628 1.124 1.294 2.733 1.941 4.829 1.941 1.02 0 1.917-.071 2.69-.214.772-.143 1.752-.45 2.937-.922v1.48c-1.01.439-1.941.738-2.797.897-.854.16-1.798.24-2.829.24zm-.477-17.112c-1.722 0-3.104.567-4.146 1.702-1.042 1.136-1.65 2.772-1.826 4.912h11.057c0-2.073-.449-3.694-1.349-4.862s-2.145-1.752-3.736-1.752z"/><path d="m463.85 440.799-3.916-11.962c-.253-.812-.576-2.001-.971-3.57h-.099l-.346 1.218-.74 2.386-3.982 11.929h-1.612l-5.117-17.885h1.744l2.863 10.365c.669 2.567 1.107 4.454 1.316 5.66h.099c.646-2.566 1.118-4.272 1.415-5.117l3.686-10.908h1.48l3.505 10.876c.79 2.577 1.272 4.283 1.447 5.116h.1c.087-.713.526-2.621 1.315-5.726l2.731-10.267h1.646l-4.854 17.885z"/><path d="m488.71 431.832c0 2.918-.707 5.196-2.122 6.836s-3.368 2.46-5.857 2.46c-1.569 0-2.951-.379-4.146-1.136-1.196-.757-2.112-1.843-2.748-3.258s-.954-3.049-.954-4.902c0-2.918.707-5.191 2.122-6.82s3.356-2.443 5.825-2.443c2.457 0 4.385.825 5.783 2.477 1.398 1.649 2.097 3.912 2.097 6.786zm-14.117 0c0 2.457.54 4.374 1.621 5.75 1.08 1.377 2.607 2.065 4.582 2.065s3.502-.688 4.582-2.065c1.08-1.376 1.621-3.293 1.621-5.75 0-2.469-.546-4.383-1.638-5.742-1.091-1.36-2.624-2.041-4.599-2.041-1.974 0-3.496.678-4.565 2.032-1.069 1.355-1.604 3.271-1.604 5.751z"/><path d="m500.704 422.568c.758 0 1.569.077 2.436.23l-.312 1.562c-.746-.186-1.52-.279-2.32-.279-1.524 0-2.775.647-3.751 1.941-.977 1.295-1.465 2.929-1.465 4.903v9.872h-1.629v-17.885h1.383l.164 3.225h.115c.734-1.316 1.52-2.24 2.353-2.772.833-.531 1.842-.797 3.026-.797z"/><path d="m508.372 432.95 9.132-10.036h1.974l-7.042 7.634 7.651 10.251h-1.958l-6.796-9.033-2.929 2.666v6.367h-1.629v-25.602h1.629v12.834l-.115 4.919z"/><path d="m536.557 439.679c1.031 0 1.931-.087 2.698-.263v1.316c-.79.263-1.7.395-2.731.395-1.579 0-2.745-.422-3.496-1.267-.752-.845-1.127-2.172-1.127-3.982v-11.55h-2.649v-.954l2.649-.741.822-4.047h.839v4.327h5.249v1.415h-5.249v11.319c0 1.372.241 2.386.725 3.044.482.659 1.238.988 2.27.988z"/><path d="m555.593 440.799v-11.6c0-1.799-.378-3.107-1.135-3.924s-1.931-1.227-3.521-1.227c-2.139 0-3.704.541-4.697 1.621s-1.489 2.833-1.489 5.257v9.872h-1.629v-25.602h1.629v8.145l-.082 2.287h.115c.669-1.075 1.514-1.854 2.534-2.337 1.02-.482 2.287-.724 3.801-.724 4.058 0 6.088 2.178 6.088 6.532v11.698h-1.614z"/><path d="m573.856 440.799-.411-2.83h-.132c-.899 1.151-1.823 1.966-2.772 2.443-.948.478-2.07.716-3.364.716-1.755 0-3.121-.449-4.097-1.35-.977-.898-1.465-2.144-1.465-3.734 0-1.744.727-3.099 2.181-4.064 1.453-.965 3.556-1.475 6.31-1.53l3.405-.099v-1.185c0-1.7-.345-2.983-1.036-3.85s-1.805-1.3-3.34-1.3c-1.656 0-3.373.46-5.15 1.382l-.608-1.415c1.963-.922 3.905-1.382 5.824-1.382 1.964 0 3.431.51 4.401 1.53.971 1.02 1.456 2.61 1.456 4.771v11.896h-1.202zm-6.581-1.152c1.908 0 3.414-.546 4.517-1.638 1.103-1.091 1.653-2.607 1.653-4.549v-1.761l-3.126.132c-2.512.12-4.303.513-5.372 1.176-1.069.664-1.604 1.698-1.604 3.102 0 1.119.343 1.988 1.028 2.608.686.62 1.653.93 2.904.93z"/><path d="m585.572 439.679c1.031 0 1.931-.087 2.698-.263v1.316c-.79.263-1.7.395-2.731.395-1.579 0-2.745-.422-3.496-1.267-.752-.845-1.127-2.172-1.127-3.982v-11.55h-2.649v-.954l2.649-.741.822-4.047h.839v4.327h5.249v1.415h-5.249v11.319c0 1.372.241 2.386.725 3.044.482.659 1.239.988 2.27.988z"/><path d="m611.98 436.142c0 1.602-.608 2.833-1.826 3.693-1.218.861-2.945 1.292-5.183 1.292-2.392 0-4.289-.367-5.693-1.103v-1.761c1.799.899 3.696 1.35 5.693 1.35 1.766 0 3.106-.293 4.022-.88s1.374-1.369 1.374-2.345c0-.899-.365-1.656-1.094-2.271-.729-.614-1.929-1.218-3.596-1.811-1.788-.646-3.044-1.203-3.768-1.67-.724-.466-1.27-.992-1.637-1.579-.368-.587-.552-1.303-.552-2.147 0-1.338.562-2.396 1.687-3.176 1.124-.778 2.695-1.168 4.714-1.168 1.931 0 3.763.362 5.496 1.086l-.609 1.48c-1.755-.724-3.384-1.086-4.887-1.086-1.459 0-2.616.242-3.472.725s-1.283 1.151-1.283 2.007c0 .933.332 1.679.995 2.238.664.559 1.961 1.185 3.892 1.875 1.612.582 2.786 1.105 3.521 1.571.734.467 1.285.996 1.653 1.588.369.595.553 1.292.553 2.092z"/><path d="m629.058 440.799v-11.6c0-1.799-.378-3.107-1.135-3.924s-1.931-1.227-3.521-1.227c-2.139 0-3.704.541-4.697 1.621s-1.489 2.833-1.489 5.257v9.872h-1.629v-25.602h1.629v8.145l-.082 2.287h.115c.669-1.075 1.514-1.854 2.534-2.337 1.02-.482 2.287-.724 3.801-.724 4.058 0 6.088 2.178 6.088 6.532v11.698h-1.614z"/><path d="m636.232 417.945c0-1.054.345-1.58 1.036-1.58.34 0 .605.138.798.411.192.274.288.664.288 1.169 0 .493-.096.883-.288 1.168s-.458.428-.798.428c-.691 0-1.036-.532-1.036-1.596zm1.859 22.854h-1.629v-17.885h1.629z"/><path d="m656.552 440.799v-11.6c0-1.799-.378-3.107-1.135-3.924s-1.931-1.227-3.521-1.227c-2.139 0-3.704.541-4.697 1.621s-1.489 2.833-1.489 5.257v9.872h-1.629v-17.885h1.383l.312 2.451h.099c1.162-1.864 3.23-2.797 6.203-2.797 4.058 0 6.088 2.178 6.088 6.532v11.698h-1.614z"/><path d="m671.18 441.128c-2.6 0-4.626-.801-6.08-2.402-1.453-1.602-2.18-3.845-2.18-6.729 0-2.852.702-5.136 2.106-6.853 1.403-1.717 3.296-2.575 5.676-2.575 2.106 0 3.768.735 4.985 2.205s1.826 3.466 1.826 5.989v1.315h-12.883c.022 2.458.595 4.333 1.72 5.628 1.124 1.294 2.733 1.941 4.829 1.941 1.02 0 1.917-.071 2.69-.214.772-.143 1.752-.45 2.937-.922v1.48c-1.01.439-1.941.738-2.797.897-.855.16-1.799.24-2.829.24zm-.478-17.112c-1.722 0-3.104.567-4.146 1.702-1.042 1.136-1.65 2.772-1.826 4.912h11.057c0-2.073-.449-3.694-1.349-4.862s-2.145-1.752-3.736-1.752z"/><path d="m693.539 436.142c0 1.602-.608 2.833-1.826 3.693-1.218.861-2.945 1.292-5.183 1.292-2.392 0-4.289-.367-5.693-1.103v-1.761c1.799.899 3.696 1.35 5.693 1.35 1.766 0 3.106-.293 4.022-.88s1.374-1.369 1.374-2.345c0-.899-.365-1.656-1.094-2.271-.729-.614-1.929-1.218-3.596-1.811-1.788-.646-3.044-1.203-3.768-1.67-.724-.466-1.27-.992-1.637-1.579-.368-.587-.552-1.303-.552-2.147 0-1.338.562-2.396 1.687-3.176 1.124-.778 2.695-1.168 4.714-1.168 1.931 0 3.763.362 5.496 1.086l-.609 1.48c-1.755-.724-3.384-1.086-4.887-1.086-1.459 0-2.616.242-3.472.725s-1.283 1.151-1.283 2.007c0 .933.332 1.679.995 2.238.664.559 1.961 1.185 3.892 1.875 1.612.582 2.786 1.105 3.521 1.571.734.467 1.285.996 1.653 1.588.37.595.553 1.292.553 2.092z"/></g></svg>